<?xml version="1.0" encoding="UTF-8"?>
<svg width="20px" height="20px" viewBox="0 0 20 20" version="1.1" xmlns="http://www.w3.org/2000/svg" xmlns:xlink="http://www.w3.org/1999/xlink">
    <!-- Generator: Sketch 47.1 (45422) - http://www.bohemiancoding.com/sketch -->
    <title>settings</title>
    <desc>Created with Sketch.</desc>
    <defs></defs>
    <g id="Shopkick-Light-UI" stroke="none" stroke-width="1" fill="none" fill-rule="evenodd">
        <g id="2.-Campaigns---Redacted-Table" transform="translate(-717.000000, -20.000000)">
            <g id="settings" transform="translate(716.187691, 19.386904)">
                <polygon id="Shape" points="0 0 22 0 22 22 0 22"></polygon>
                <path d="M17.8108333,11.8983333 C17.8475,11.605 17.875,11.3116667 17.875,11 C17.875,10.6883333 17.8475,10.395 17.8108333,10.1016667 L19.745,8.58916667 C19.9191667,8.45166667 19.965,8.20416667 19.855,8.0025 L18.0216667,4.83083333 C17.9116667,4.62916667 17.6641667,4.55583333 17.4625,4.62916667 L15.18,5.54583333 C14.7033333,5.17916667 14.19,4.87666667 13.6308333,4.6475 L13.2825,2.21833333 C13.255,1.99833333 13.0625,1.83333333 12.8333333,1.83333333 L9.16666667,1.83333333 C8.9375,1.83333333 8.745,1.99833333 8.7175,2.21833333 L8.36916667,4.6475 C7.81,4.87666667 7.29666667,5.18833333 6.82,5.54583333 L4.5375,4.62916667 C4.32666667,4.54666667 4.08833333,4.62916667 3.97833333,4.83083333 L2.145,8.0025 C2.02583333,8.20416667 2.08083333,8.45166667 2.255,8.58916667 L4.18916667,10.1016667 C4.1525,10.395 4.125,10.6975 4.125,11 C4.125,11.3025 4.1525,11.605 4.18916667,11.8983333 L2.255,13.4108333 C2.08083333,13.5483333 2.035,13.7958333 2.145,13.9975 L3.97833333,17.1691667 C4.08833333,17.3708333 4.33583333,17.4441667 4.5375,17.3708333 L6.82,16.4541667 C7.29666667,16.8208333 7.81,17.1233333 8.36916667,17.3525 L8.7175,19.7816667 C8.745,20.0016667 8.9375,20.1666667 9.16666667,20.1666667 L12.8333333,20.1666667 C13.0625,20.1666667 13.255,20.0016667 13.2825,19.7816667 L13.6308333,17.3525 C14.19,17.1233333 14.7033333,16.8116667 15.18,16.4541667 L17.4625,17.3708333 C17.6733333,17.4533333 17.9116667,17.3708333 18.0216667,17.1691667 L19.855,13.9975 C19.965,13.7958333 19.9191667,13.5483333 19.745,13.4108333 L17.8108333,11.8983333 Z M11,14.2083333 C9.23083333,14.2083333 7.79166667,12.7691667 7.79166667,11 C7.79166667,9.23083333 9.23083333,7.79166667 11,7.79166667 C12.7691667,7.79166667 14.2083333,9.23083333 14.2083333,11 C14.2083333,12.7691667 12.7691667,14.2083333 11,14.2083333 Z" id="Shape" stroke="#50505A" stroke-width="0.8" fill-rule="nonzero"></path>
            </g>
        </g>
    </g>
</svg>