<?xml version="1.0" encoding="utf-8"?>
<!-- Generator: Adobe Illustrator 22.0.0, SVG Export Plug-In . SVG Version: 6.00 Build 0)  -->
<svg version="1.1" id="Layer_1" xmlns="http://www.w3.org/2000/svg" xmlns:xlink="http://www.w3.org/1999/xlink" x="0px" y="0px"
	 viewBox="0 0 196.8 37.2" style="enable-background:new 0 0 196.8 37.2;" xml:space="preserve">
<style type="text/css">
	.st0{fill:#FFFFFF;}
</style>
<title>GWL-180W</title>
<path d="M33.3,4.6c-1.4-1.1-3.1-1.8-4.9-2c-1.8-0.2-3.7,0.1-5.4,0.8c-0.7,0.3-1.3,0.6-1.9,1.1c-0.8,0.5-1.2,1.5-2.3,1.5
	c-0.7,0-1.2-0.6-1.2-1.3c0-0.1,0-0.2,0-0.3C18,3.6,18.6,3,19.4,2.6c1.3-0.8,2.7-1.5,4.1-2c2.9-0.9,6-0.7,8.8,0.6
	c0.7,0.3,1.5,0.7,2.2,1.2c0.7,0.5,1.3,0.9,1.9,1.5C36.9,4.2,37,5,36.6,5.5c-0.2,0.2-0.4,0.4-0.7,0.4l0,0c-0.7,0.2-1.2-0.3-1.7-0.7
	C33.9,5,33.6,4.8,33.3,4.6z"/>
<path d="M21.9,5.2c0.7-0.4,1.4-0.8,2.2-1c0.8-0.3,1.7-0.5,2.6-0.6c2-0.1,4,0.4,5.6,1.5C33,5.5,34,6.1,34.2,7c0.4,1.4-1.1,1.7-2,1.1
	c-0.8-0.6-1.8-1.1-2.7-1.6c-1.5-0.5-3.1-0.6-4.6-0.1l0,0c-0.7,0.3-1.4,0.6-2,1.1c-0.5,0.4-0.9,1-1.6,1c-0.7,0-1.3-0.7-1.2-1.4
	c0,0,0-0.1,0-0.1C20.4,6.2,21.3,5.6,21.9,5.2z"/>
<path d="M31.2,8.7c0.5,0.6,0.8,1.3,0.1,1.9c-0.9,0.8-1.8-0.2-2.5-0.7c-1.1-0.6-2.3-0.6-3.4,0c-0.7,0.4-1.6,1.4-2.4,0.6
	c-0.9-1,0.2-2,1-2.5c1.2-0.7,2.6-1,3.9-0.9c1,0.1,1.9,0.5,2.7,1.1C30.9,8.4,31.1,8.5,31.2,8.7z"/>
<path d="M47.4,24c-0.3-0.9-0.7-1.7-1.4-2.4c-0.2-0.1-0.3-0.2-0.4-0.3c-0.1,0-0.2-0.1-0.2-0.1c-1-0.6-2.2-0.8-3.4-0.6
	c-0.1,0-0.3,0.1-0.4,0.1c-0.2,0-0.2,0-0.2-0.2c0-0.3,0.1-0.7,0.1-1c0.1-0.7,0.1-1.5,0.1-2.2c0-1-0.4-2-1.3-2.7c0,0,0,0,0,0
	c-0.5-0.3-1.1-0.6-1.6-0.9c-0.5-0.1-0.9-0.3-1.4-0.5c-0.1,0-0.2,0-0.3,0c-1.8-0.6-3.7-0.9-5.6-1c-2.8-0.2-5.7-0.2-8.6,0.1
	c-1.5,0.2-2.9,0.4-4.3,0.9c-1.4,0.3-2.7,0.9-3.7,1.8c-0.4,0.5-0.8,1.1-0.9,1.7c-0.1,0.5-0.1,1-0.1,1.5c0.1,0.9,0.2,1.8,0.3,2.8
	c0.1,0.4,0.1,0.9,0.2,1.3c0,0,0.1,0.1,0.1,0.1c0.2,1,0.5,2,0.7,2.9c0.6,2,1.4,3.9,2.3,5.7c0,0.1,0.1,0.1,0.1,0.2
	c0.2,0.3,0.4,0.7,0.7,1c0.2,0.3,0.3,0.5,0.5,0.8c0.2,0.1,0.3,0.3,0.4,0.5c0.3,0.3,0.7,0.6,1,1c0.5,0.6,1.1,1,1.8,1.4
	c0,0,0.1,0.1,0.1,0.1c0.1,0,0.2,0,0.2,0.1c0.4,0.1,0.9,0.3,1.3,0.4c0.1,0,0.3,0,0.4,0.1c0.4,0.1,0.9,0.1,1.3,0.2
	c0.9,0.1,1.9,0.1,2.8,0.1c1,0,1.9-0.1,2.9-0.2c0.3,0,0.5-0.1,0.8-0.1c0.4-0.1,0.9-0.3,1.3-0.4c0.2-0.1,0.4-0.3,0.6-0.3
	c0.1-0.1,0.2-0.2,0.3-0.2c0.1-0.1,0.2-0.2,0.3-0.2c0-0.1,0.1-0.1,0.1-0.2c1-0.9,1.9-1.9,2.7-3c0.1-0.1,0.1-0.2,0.2-0.2
	c0.2-0.4,0.4-0.7,0.6-1.1c0.2-0.4,0.7-0.7,1.1-0.6c0.4,0,0.7,0,1.1,0.1c0.9,0.1,1.8,0,2.7-0.1c2.1-0.1,3.8-1.5,4.4-3.5
	c0,0,0-0.1,0.1-0.1c0-0.1,0-0.2,0-0.3C47.7,25.6,47.6,24.7,47.4,24z M39,17c-0.4,0.3-0.8,0.5-1.3,0.6c-1.2,0.4-2.4,0.7-3.6,0.8
	c-2.4,0.3-4.7,0.5-7.1,0.4c-2.2,0-4.4-0.2-6.6-0.5c-1.1-0.2-2.1-0.4-3.1-0.7c-0.4-0.1-0.7-0.3-1.1-0.5c-0.2-0.1-0.3-0.3-0.5-0.4
	c-0.2-0.2-0.2-0.6,0-0.8c0.2-0.2,0.4-0.4,0.6-0.5c0.5-0.3,0.9-0.4,1.4-0.6c0.9-0.3,1.8-0.5,2.8-0.6c3.4-0.5,6.8-0.6,10.2-0.4
	c1.6,0.1,3.3,0.3,4.9,0.6c0.8,0.1,1.6,0.4,2.3,0.6c0.4,0.1,0.7,0.3,1,0.6C39.6,16,39.6,16.5,39,17z M43.4,27.8
	c-0.3,0.1-0.6,0.1-0.8,0.1c-1,0-2-0.1-3,0c0-0.1,0-0.2,0-0.3c0.4-1,0.7-2,1-3c0.1-0.3,0.3-0.6,0.5-0.9c0.3-0.3,0.6-0.5,0.9-0.7
	c0.3-0.2,0.8-0.3,1.1-0.2c1.1,0.1,1.9,0.9,2.2,2C45.5,26.1,44.6,27.4,43.4,27.8z"/>
<path class="st0" d="M5.6,21c-0.1-0.6-0.5-1.1-1-1.4c-0.4-0.3-0.9-0.4-1.4-0.2c-0.8,0.2-1.4,1-1.4,1.8c0,0.9,0.7,1.7,1.6,1.9
	c0.2,0,0.4,0.1,0.6,0.1c0.8,0,1.5,0,2.3,0c0,0,0,0,0,0c0.1-0.1,0-0.2,0-0.3C5.9,22.2,5.7,21.6,5.6,21z"/>
<path d="M21.3,11.7L21.3,11.7L21.3,11.7L21.3,11.7z"/>
<path d="M21.3,11.7l-0.5-0.1c-1-0.2-2-0.3-3-0.4c-1.6-0.1-3.2-0.1-4.8,0c-1.5,0.1-3,0.3-4.4,0.7c-0.5,0.1-1,0.3-1.5,0.5
	c-0.2,0.1-0.4,0.2-0.6,0.3c-0.6,0.2-1.1,0.6-1.5,1.1c-0.3,0.6-0.4,1.3-0.4,1.9c0,0.5,0.1,0.9,0.2,1.3c0,0.3,0.2,0.8-0.3,0.7
	C2.3,17.2-0.2,19,0,21.4c0.1,1.9,1.6,3.4,3.5,3.7c0.9,0.1,1.7,0.1,2.6,0c0.2,0,0.3,0,0.5,0c0.3,0,0.6,0.2,0.7,0.4
	c0.2,0.4,0.5,0.8,0.7,1.2c0.1,0,0.1,0.1,0.1,0.1c0.4,0.6,1,1.2,1.5,1.7c0.6,0.6,1.4,1.1,2.3,1.3c0.8,0.2,1.7,0.3,2.6,0.3
	c0.5,0,0.6,0,0.4-0.5c-0.2-0.5-0.4-1-0.6-1.5c-0.2-0.7-0.4-1.3-0.6-2c-0.7-2.7-1.1-5.4-1.1-8.1c0-0.6,0-1.2,0-1.9
	c-0.4,0-0.8-0.1-1.3-0.1c-1-0.1-2.1-0.3-3.1-0.5c-0.4-0.1-0.8-0.2-1.2-0.4c-0.2-0.1-0.4-0.2-0.5-0.3c-0.5-0.4-0.5-0.8,0-1.1
	c0.2-0.1,0.4-0.3,0.7-0.4C7.8,13.2,8.4,13,9,12.9c1.4-0.3,2.9-0.5,4.3-0.5c1.5-0.1,2.9-0.1,4.4,0c0.3,0,0.6,0,0.9-0.1
	c0.6-0.2,1.3-0.4,2-0.5C20.8,11.8,21.1,11.7,21.3,11.7L21.3,11.7z M6.2,23.2C6.2,23.2,6.2,23.2,6.2,23.2c-0.8,0-1.5,0.1-2.3,0.1
	c-0.2,0-0.4,0-0.6-0.1c-0.9-0.2-1.5-1-1.6-1.9c0-0.9,0.5-1.6,1.4-1.8c0.5-0.2,1-0.1,1.4,0.2c0.5,0.3,0.9,0.8,1,1.4
	c0.2,0.6,0.4,1.2,0.6,1.9C6.2,23,6.2,23,6.2,23.2z"/>
<path d="M110.5,30.7h1.5l2,2.7l1.9-2.7h1.4v6.4h-1.5V33l-1.8,2.5h-0.2l-1.8-2.5v4h-1.5L110.5,30.7z"/>
<path d="M120.7,30.7h1.3l2.7,6.4h-1.6l-0.5-1.3H120l-0.5,1.3H118L120.7,30.7z M120.5,34.4h1.4l-0.7-1.8L120.5,34.4z"/>
<path d="M129.9,37.1l-3-3.8v3.8h-1.4v-6.4h1.2l3,3.9v-3.9h1.4v6.4H129.9z"/>
<path d="M134.5,30.7h1.3l2.7,6.4h-1.6l-0.5-1.3h-2.5l-0.5,1.3h-1.5L134.5,30.7z M134.4,34.4h1.4l-0.7-1.8L134.4,34.4z"/>
<path d="M141.7,33.4h2.7v2.9c-0.7,0.6-1.5,0.9-2.4,0.9c-1.7,0.2-3.2-1.1-3.4-2.8c0-0.2,0-0.4,0-0.5c0-1.8,1.5-3.3,3.4-3.3
	c0.7,0,1.4,0.2,2,0.7l-0.6,1.2c-0.4-0.3-0.8-0.5-1.3-0.5c-1-0.1-1.8,0.7-1.9,1.6c0,0.1,0,0.2,0,0.3c-0.1,1,0.7,1.9,1.6,1.9
	c0.1,0,0.2,0,0.2,0c0.4,0,0.7-0.1,1-0.3v-0.7h-1.4L141.7,33.4z"/>
<path d="M145.7,30.7h3.8V32h-2.3v1.1h2.1v1.4h-2.1v1.2h2.4v1.4h-3.9V30.7z"/>
<path d="M151,30.7h0.1c0.3,0,1.5,0,1.9,0c2.6,0,3.6,1.5,3.6,3.2c0,1.8-1.2,3.3-3.7,3.3c-0.3,0-1.2,0-1.8,0H151L151,30.7z M152.4,32
	v3.7c0.2,0,0.4,0,0.5,0c1,0.1,1.9-0.6,2.1-1.6c0-0.1,0-0.2,0-0.3c0-1.2-0.9-1.8-2.1-1.8C152.8,32,152.6,32,152.4,32z"/>
<path d="M162.6,30.6c1.8-0.1,3.3,1.2,3.4,3c0,0.1,0,0.2,0,0.3c0,1.8-1.4,3.3-3.2,3.3c-0.1,0-0.1,0-0.2,0c-1.8,0.1-3.3-1.2-3.4-3
	c0-0.1,0-0.2,0-0.3c0-1.8,1.4-3.3,3.2-3.3C162.4,30.6,162.5,30.6,162.6,30.6z M162.6,35.8c1,0,1.8-0.7,1.9-1.7c0-0.1,0-0.2,0-0.2
	c0-1-0.7-1.9-1.8-1.9s-1.9,0.7-1.9,1.8c0,0.1,0,0.1,0,0.2C160.7,34.9,161.5,35.8,162.6,35.8C162.5,35.8,162.5,35.8,162.6,35.8z"/>
<path d="M167.1,30.7h3.7V32h-2.2v1.4h2v1.4h-2v2.3h-1.5L167.1,30.7z"/>
<path d="M172,30.7h3.7V32h-2.2v1.4h2v1.4h-2v2.3H172L172,30.7z"/>
<path d="M177,30.7h1.5v6.4H177V30.7z"/>
<path d="M185.2,36.4c-0.6,0.5-1.3,0.8-2.1,0.7c-1.7,0.1-3.2-1.2-3.4-3c0-0.1,0-0.2,0-0.4c-0.1-1.7,1.2-3.2,2.9-3.3
	c0.1,0,0.3,0,0.4,0c0.7,0,1.4,0.2,2,0.7l-0.6,1.1c-0.4-0.3-0.8-0.4-1.3-0.4c-1,0-1.8,0.7-1.8,1.7c0,0.1,0,0.1,0,0.2
	c0,1,0.7,1.9,1.8,1.9c0.1,0,0.1,0,0.2,0c0.5,0,1-0.2,1.4-0.5L185.2,36.4z"/>
<path d="M186.2,30.7h3.8V32h-2.3v1.1h2.1v1.4h-2.1v1.2h2.4v1.4h-3.9V30.7z"/>
<path d="M191.1,32.4c0-1,0.9-1.9,1.9-1.9c0,0,0.1,0,0.1,0c0.7,0,1.4,0.2,1.9,0.7l-0.8,1.1c-0.2-0.3-0.6-0.4-1-0.4
	c-0.4,0-0.6,0.2-0.6,0.5c0,1.1,2.7,0.8,2.7,2.9c-0.1,1.1-1,1.9-2.1,1.9c0,0-0.1,0-0.1,0c-0.9,0.1-1.7-0.3-2.2-1.1l0.8-1
	c0.3,0.4,0.8,0.7,1.4,0.7c0.4,0,0.6-0.2,0.6-0.5C193.8,34.4,191.1,34.5,191.1,32.4z"/>
<path d="M59.5,36.2c-0.6,0.5-1.3,0.8-2.1,0.7c-1.7,0.1-3.2-1.2-3.4-3c0-0.1,0-0.2,0-0.4c-0.1-1.7,1.2-3.2,2.9-3.3c0.1,0,0.3,0,0.4,0
	c0.7,0,1.4,0.2,2,0.7l-0.6,1.1c-0.4-0.3-0.8-0.4-1.3-0.4c-1,0-1.8,0.7-1.8,1.7c0,0.1,0,0.1,0,0.2c0,1,0.7,1.9,1.8,1.9
	c0.1,0,0.1,0,0.2,0c0.5,0,1-0.2,1.4-0.5L59.5,36.2z"/>
<path d="M63.1,30.3c1.8-0.1,3.3,1.2,3.4,3c0,0.1,0,0.2,0,0.3c0,1.8-1.4,3.3-3.2,3.3c-0.1,0-0.1,0-0.2,0c-1.8,0.1-3.3-1.2-3.4-3
	c0-0.1,0-0.2,0-0.3c0-1.8,1.4-3.3,3.2-3.3C63,30.3,63.1,30.3,63.1,30.3z M63.1,35.6c1,0,1.8-0.7,1.9-1.7c0-0.1,0-0.2,0-0.2
	c0-1-0.7-1.9-1.8-1.9c-1,0-1.9,0.7-1.9,1.8c0,0.1,0,0.1,0,0.2C61.2,34.6,62.1,35.5,63.1,35.6C63.1,35.6,63.1,35.6,63.1,35.6
	L63.1,35.6z"/>
<path d="M74.1,36.8h-1.4l-1.3-4.1L70,36.8h-1.4l-1.9-6.4h1.7l1.1,4l1.2-4h1.5l1.2,4l1.1-4h1.4L74.1,36.8z"/>
<path d="M79.5,30.3c1.8-0.1,3.3,1.2,3.4,3c0,0.1,0,0.2,0,0.3c0,1.8-1.4,3.3-3.2,3.3c-0.1,0-0.1,0-0.2,0c-1.8,0.1-3.3-1.2-3.4-3
	c0-0.1,0-0.2,0-0.3c0-1.8,1.4-3.3,3.2-3.3C79.3,30.3,79.4,30.3,79.5,30.3z M79.5,35.6c1,0,1.8-0.7,1.9-1.7c0-0.1,0-0.2,0-0.2
	c0-1-0.7-1.9-1.8-1.9c-1,0-1.9,0.7-1.9,1.8c0,0.1,0,0.1,0,0.2C77.6,34.6,78.4,35.5,79.5,35.6C79.4,35.6,79.5,35.6,79.5,35.6
	L79.5,35.6z"/>
<path d="M84.1,36.8v-6.4c0.4,0,2,0,2.2,0c1.7,0,2.4,0.9,2.4,2c0,0.8-0.4,1.5-1.1,1.8l1.9,2.5h-1.8l-1.6-2.2h-0.5v2.2L84.1,36.8z
	 M85.5,31.8v1.4h0.5c0.6,0,1-0.2,1-0.7c0-0.4-0.2-0.7-0.9-0.7C85.9,31.8,85.8,31.8,85.5,31.8z"/>
<path d="M90.2,30.4h1.5v2.8l2.1-2.8h1.8l-2.4,3l2.6,3.4h-1.9l-2.2-3v3h-1.5V30.4z"/>
<circle cx="102.7" cy="34.5" r="1.1"/>
<path d="M64.4,21.8c-0.8,0.4-1.8,0.6-2.7,0.6c-1.3,0-2.6-0.2-3.9-0.7c-1.1-0.5-2.1-1.2-2.9-2.1c-0.8-0.9-1.4-1.9-1.8-3.1
	c-0.4-1.2-0.6-2.5-0.6-3.8c0-1.3,0.2-2.6,0.6-3.9c0.4-1.1,1-2.2,1.8-3.1c0.8-0.9,1.8-1.6,2.9-2.1c1.2-0.5,2.5-0.8,3.9-0.8
	c0.9,0,1.9,0.1,2.8,0.4c0.9,0.3,1.7,0.7,2.4,1.3c1.5,1.2,2.5,3,2.7,4.9h-3.9c-0.2-0.9-0.7-1.8-1.4-2.4c-0.7-0.5-1.6-0.8-2.5-0.8
	c-0.8,0-1.6,0.2-2.4,0.5c-0.6,0.3-1.2,0.8-1.6,1.4c-0.4,0.6-0.7,1.3-0.9,2.1c-0.2,0.8-0.3,1.6-0.3,2.4c0,0.8,0.1,1.5,0.3,2.3
	c0.2,0.7,0.5,1.4,0.9,2c0.4,0.6,0.9,1.1,1.6,1.4c0.7,0.4,1.5,0.6,2.4,0.5c1.1,0.1,2.3-0.3,3.1-1c0.8-0.8,1.3-1.9,1.3-3H62v-3.1h7.8
	v10.1h-2.6l-0.4-2.1C66.2,20.7,65.4,21.3,64.4,21.8z"/>
<path d="M72.9,12.2c0.6-1.7,1.9-3,3.6-3.7C77.4,8.2,78.4,8,79.4,8c1,0,2,0.2,2.9,0.5c1.7,0.6,3,2,3.6,3.7c0.3,0.9,0.5,1.9,0.5,2.9
	c0,1-0.2,2-0.5,2.9c-0.3,0.8-0.8,1.6-1.4,2.2c-0.6,0.6-1.4,1.1-2.2,1.4c-0.9,0.3-1.9,0.5-2.9,0.5c-1,0-2-0.2-2.9-0.5
	c-0.8-0.3-1.6-0.8-2.2-1.4c-0.6-0.6-1.1-1.4-1.4-2.2c-0.3-0.9-0.5-1.9-0.5-2.9C72.4,14.2,72.5,13.2,72.9,12.2z M76.3,16.8
	c0.1,0.5,0.3,1,0.5,1.4c0.2,0.4,0.6,0.7,1,1c0.5,0.3,1,0.4,1.6,0.4c0.5,0,1.1-0.1,1.6-0.4c0.4-0.2,0.8-0.6,1-1
	c0.3-0.4,0.4-0.9,0.5-1.4c0.1-0.5,0.2-1,0.2-1.6c0-0.5-0.1-1.1-0.2-1.6c-0.1-0.5-0.3-1-0.5-1.4c-0.3-0.4-0.6-0.7-1-1
	c-0.5-0.3-1-0.4-1.6-0.4c-1-0.1-2,0.5-2.6,1.4c-0.3,0.4-0.4,0.9-0.5,1.4c-0.1,0.5-0.2,1.1-0.2,1.6C76.1,15.7,76.1,16.2,76.3,16.8z"
	/>
<path d="M88.8,12.2c0.6-1.7,1.9-3,3.6-3.7C93.4,8.2,94.3,8,95.3,8c1,0,2,0.2,2.9,0.5c1.7,0.6,3,2,3.6,3.7c0.3,0.9,0.5,1.9,0.5,2.9
	c0,1-0.2,2-0.5,2.9c-0.3,0.8-0.8,1.6-1.4,2.2c-0.6,0.6-1.4,1.1-2.2,1.4c-0.9,0.3-1.9,0.5-2.9,0.5c-1,0-2-0.2-2.9-0.5
	c-0.8-0.3-1.6-0.8-2.2-1.4c-0.6-0.6-1.1-1.4-1.4-2.2c-0.3-0.9-0.5-1.9-0.5-2.9C88.3,14.2,88.5,13.2,88.8,12.2z M92.2,16.8
	c0.1,0.5,0.3,1,0.5,1.4c0.2,0.4,0.6,0.7,1,1c0.5,0.3,1,0.4,1.6,0.4c0.5,0,1.1-0.1,1.6-0.4c0.4-0.2,0.8-0.6,1-1
	c0.3-0.4,0.4-0.9,0.5-1.4c0.1-0.5,0.2-1,0.2-1.6c0-0.5-0.1-1.1-0.2-1.6c-0.1-0.5-0.3-1-0.5-1.4c-0.3-0.4-0.6-0.7-1-1
	c-0.5-0.3-1-0.4-1.6-0.4c-1-0.1-2,0.5-2.6,1.4c-0.3,0.4-0.4,0.9-0.5,1.4c-0.1,0.5-0.2,1.1-0.2,1.6C92.1,15.7,92.1,16.2,92.2,16.8z"
	/>
<path d="M114.3,20.2c-0.4,0.7-1,1.2-1.7,1.6c-0.8,0.3-1.6,0.5-2.4,0.5c-0.9,0-1.8-0.2-2.7-0.6c-0.7-0.4-1.4-0.9-1.9-1.6
	c-0.5-0.7-0.9-1.5-1.1-2.3c-0.3-0.9-0.4-1.8-0.4-2.7c0-0.9,0.1-1.8,0.4-2.6c0.2-0.8,0.6-1.6,1.1-2.2c1.1-1.4,2.7-2.2,4.5-2.1
	c0.8,0,1.6,0.2,2.3,0.5c0.7,0.3,1.3,0.8,1.7,1.5h0.1V3.3h3.7v18.6h-3.5L114.3,20.2L114.3,20.2z M114.1,13.5
	c-0.1-0.5-0.3-0.9-0.5-1.4c-0.2-0.4-0.6-0.7-1-1c-0.5-0.3-1-0.4-1.5-0.4c-0.5,0-1.1,0.1-1.5,0.4c-0.4,0.2-0.8,0.6-1,1
	c-0.3,0.4-0.4,0.9-0.5,1.4c-0.1,0.5-0.2,1.1-0.2,1.6c0,0.5,0.1,1.1,0.2,1.6c0.1,0.5,0.3,1,0.6,1.4c0.3,0.4,0.6,0.7,1,1
	c0.4,0.3,1,0.4,1.5,0.4c0.5,0,1.1-0.1,1.5-0.4c0.4-0.2,0.7-0.6,1-1c0.3-0.4,0.4-0.9,0.5-1.4c0.1-0.5,0.2-1.1,0.2-1.6
	C114.3,14.6,114.3,14,114.1,13.5L114.1,13.5z"/>
<path d="M134.8,21.9l-3.2-12.7h-0.1l-3.1,12.7h-4.2l-4.9-18.6h4.1l3,12.7h0.1l3.2-12.7h3.8l3.2,12.9h0.1l3.1-12.9h4l-5,18.6
	L134.8,21.9z"/>
<path d="M143.9,12.2c0.6-1.7,1.9-3,3.6-3.7c0.9-0.4,1.9-0.5,2.9-0.5c1,0,2,0.2,2.9,0.5c1.7,0.6,3,2,3.6,3.7c0.3,0.9,0.5,1.9,0.5,2.9
	c0,1-0.2,2-0.5,2.9c-0.3,0.8-0.8,1.6-1.4,2.2c-0.6,0.6-1.4,1.1-2.2,1.4c-0.9,0.3-1.9,0.5-2.9,0.5c-1,0-2-0.2-2.9-0.5
	c-0.8-0.3-1.6-0.8-2.2-1.4c-0.6-0.6-1.1-1.4-1.4-2.2c-0.3-0.9-0.5-1.9-0.5-2.9C143.4,14.2,143.6,13.2,143.9,12.2z M147.3,16.8
	c0.1,0.5,0.3,1,0.5,1.4c0.2,0.4,0.6,0.7,1,1c0.5,0.3,1,0.4,1.6,0.4c0.5,0,1.1-0.1,1.6-0.4c0.4-0.2,0.8-0.6,1-1
	c0.3-0.4,0.4-0.9,0.5-1.4c0.1-0.5,0.2-1,0.2-1.6c0-0.5-0.1-1.1-0.2-1.6c-0.1-0.5-0.3-1-0.5-1.4c-0.3-0.4-0.6-0.7-1-1
	c-0.5-0.3-1-0.4-1.6-0.4c-1-0.1-2,0.5-2.6,1.4c-0.3,0.4-0.4,0.9-0.5,1.4c-0.1,0.5-0.2,1.1-0.2,1.6C147.1,15.7,147.2,16.2,147.3,16.8
	L147.3,16.8z"/>
<path d="M163.3,8.4v2.5h0.1c0.2-0.4,0.4-0.8,0.7-1.2c0.3-0.4,0.6-0.7,1-0.9c0.4-0.3,0.8-0.4,1.2-0.6c0.4-0.1,0.9-0.2,1.4-0.2
	c0.3,0,0.5,0,0.8,0.1v3.4c-0.2,0-0.4-0.1-0.6-0.1c-0.2,0-0.5,0-0.7,0c-0.6,0-1.2,0.1-1.7,0.3c-0.4,0.2-0.8,0.5-1.1,0.9
	c-0.3,0.4-0.5,0.9-0.6,1.4c-0.1,0.6-0.2,1.1-0.2,1.7v6.1h-3.7V8.4H163.3z"/>
<path d="M174,3.3v10l4.7-4.9h4.4l-5.1,5l5.7,8.5h-4.5l-3.7-6l-1.4,1.4v4.6h-3.7V3.3H174z"/>
<path d="M188.1,18.6c0.2,0.3,0.4,0.5,0.6,0.7c0.3,0.2,0.6,0.3,0.9,0.4c0.3,0.1,0.7,0.1,1.1,0.1c0.3,0,0.6,0,0.8-0.1
	c0.3-0.1,0.5-0.2,0.8-0.3c0.2-0.1,0.4-0.3,0.6-0.5c0.2-0.2,0.2-0.5,0.2-0.8c0-0.6-0.4-1-1.1-1.3c-1-0.4-2-0.6-3.1-0.8
	c-0.5-0.1-1.1-0.3-1.6-0.4c-0.5-0.2-0.9-0.4-1.4-0.7c-0.4-0.3-0.7-0.6-1-1c-0.3-0.5-0.4-1-0.4-1.5c0-0.7,0.1-1.5,0.5-2.1
	c0.3-0.5,0.8-1,1.3-1.3c0.6-0.3,1.2-0.6,1.9-0.7c0.7-0.1,1.4-0.2,2.1-0.2c0.7,0,1.4,0.1,2.1,0.2c0.7,0.1,1.3,0.4,1.8,0.7
	c0.5,0.3,1,0.8,1.3,1.3c0.4,0.6,0.6,1.3,0.6,2.1h-3.5c0-0.6-0.3-1.2-0.8-1.4c-0.5-0.3-1.1-0.4-1.7-0.4c-0.2,0-0.5,0-0.7,0
	c-0.2,0-0.5,0.1-0.7,0.2c-0.2,0.1-0.4,0.2-0.5,0.4c-0.1,0.2-0.2,0.4-0.2,0.7c0,0.3,0.1,0.6,0.4,0.8c0.3,0.2,0.6,0.4,1,0.5
	c0.4,0.1,0.9,0.3,1.3,0.4c0.5,0.1,1,0.2,1.5,0.3c0.5,0.1,1.1,0.3,1.6,0.4c0.5,0.2,1,0.4,1.4,0.7c0.4,0.3,0.7,0.6,1,1.1
	c0.3,0.5,0.4,1,0.4,1.6c0.1,1.5-0.7,2.9-1.9,3.7c-0.6,0.4-1.3,0.6-2,0.8c-0.7,0.1-1.5,0.2-2.3,0.2c-0.8,0-1.5-0.1-2.3-0.2
	c-0.7-0.1-1.4-0.4-2-0.8c-0.6-0.4-1.1-0.9-1.4-1.4c-0.4-0.7-0.6-1.5-0.6-2.3h3.5C187.8,17.9,187.9,18.2,188.1,18.6z"/>
</svg>
