<svg xmlns="http://www.w3.org/2000/svg" viewBox="0 0 196.8087 37.1822"><defs><style>.a,.c{fill:#fff;}.a{fill-rule:evenodd;}.b{fill:none;}</style></defs><title>GWL-180W</title><path class="a" d="M35.05207,4.89224a10.91,10.91,0,0,0-4.87918-2.012,9.82614,9.82614,0,0,0-5.3671.83019A12.21578,12.21578,0,0,0,22.9224,4.763c-.78145.53386-1.239,1.47729-2.2961,1.514a1.22994,1.22994,0,0,1-1.16411-1.56A3.40417,3.40417,0,0,1,21.1403,2.92813,19.18424,19.18424,0,0,1,25.26917.89305a12.25588,12.25588,0,0,1,8.80977.5875,16.863,16.863,0,0,1,2.16519,1.17457A19.54785,19.54785,0,0,1,38.14481,4.13a1.18857,1.18857,0,0,1-.54113,2.10473l.01239-.00429c-.70222.242-1.17155-.28819-1.67977-.68511Q35.49947,5.20473,35.05207,4.89224Z" transform="translate(-1.76026 -0.33256)"/><path class="a" d="M23.65647,5.518a11.61378,11.61378,0,0,1,2.157-1.02436,10.94479,10.94479,0,0,1,2.59694-.58085,8.9228,8.9228,0,0,1,5.65,1.50139c.66481.45826,1.683,1.04274,1.91563,1.87228.38025,1.35679-1.08076,1.67938-2.01241,1.09122a14.49283,14.49283,0,0,0-2.71893-1.56654,6.88814,6.88814,0,0,0-4.55291-.06668l.01194-.006A8.089,8.089,0,0,0,24.7494,7.81155c-.457.38327-.91157.96285-1.55608.997a1.2885,1.2885,0,0,1-1.19763-1.486C22.13176,6.524,23.01665,5.91429,23.65647,5.518Z" transform="translate(-1.76026 -0.33256)"/><path class="a" d="M32.97748,9.04658c.4937.56077.80346,1.32131.12259,1.9201-.85942.756-1.79387-.21876-2.5153-.67741a3.421,3.421,0,0,0-3.37454.04957c-.7118.36253-1.617,1.42106-2.40185.55307-.8932-.98761.18905-2.04746,1.00213-2.52A6.33747,6.33747,0,0,1,29.73,7.48809a5.969,5.969,0,0,1,2.70225,1.063A3.38772,3.38772,0,0,1,32.97748,9.04658Z" transform="translate(-1.76026 -0.33256)"/><path class="a" d="M49.12182,24.28348A5.66969,5.66969,0,0,0,47.746,21.91465a1.10272,1.10272,0,0,1-.42413-.32729c-.08016-.03648-.16365-.06675-.23979-.11a4.83674,4.83674,0,0,0-3.35689-.561c-.1398.02581-.27649.069-.41542.10018-.17678.03917-.24248-.01291-.2211-.18124.04254-.33618.09662-.67058.13424-1.00721a14.23293,14.23293,0,0,0,.13314-2.18805,3.289,3.289,0,0,0-1.261-2.65782c-.0129-.0098-.01737-.03073-.02581-.04632q-.80416-.42807-1.60856-.85711a9.97713,9.97713,0,0,1-1.3966-.53256,1.757,1.757,0,0,1-.26158-.04231,25.0535,25.0535,0,0,0-5.62355-1.0321,44.48762,44.48762,0,0,0-8.55675.10861,23.17219,23.17219,0,0,0-4.288.86162,8.53083,8.53083,0,0,0-3.74983,1.81936,3.57893,3.57893,0,0,0-.87694,1.74011,7.36886,7.36886,0,0,0-.05166,1.54419c.05366.92441.179,1.84033.317,2.75535.06634.43812.12425.87808.18567,1.31712a.62126.62126,0,0,1,.06771.14116c.19724.99517.45281,1.97566.74225,2.94767A28.794,28.794,0,0,0,19.303,31.427a1.38982,1.38982,0,0,1,.07305.19684q.33062.51159.66077,1.02276c.17276.26628.34753.53164.52139.79747a1.562,1.562,0,0,1,.43284.53255c.32391.325.65361.64477.97023.97648a6.9623,6.9623,0,0,0,1.79355,1.3986.73991.73991,0,0,1,.11955.09794.22548.22548,0,0,1,.21818.10378q.64221.215,1.28392.43056c.14026.01783.28051.03383.42035.05389.43968.06324.87849.13269,1.3189.191a22.57808,22.57808,0,0,0,2.82566.085,18.78437,18.78437,0,0,0,2.87157-.20523c.26272-.03921.52476-.0833.787-.1247q.64353-.21373,1.28749-.42746a2.02046,2.02046,0,0,1,.63629-.32815.54278.54278,0,0,1,.33107-.20441.53022.53022,0,0,1,.309-.22839,1.92638,1.92638,0,0,1,.13847-.1563,15.17327,15.17327,0,0,0,2.67433-3.01894,2.46279,2.46279,0,0,1,.19966-.24133c.19551-.35843.397-.71376.58467-1.07665a1.13026,1.13026,0,0,1,1.13944-.64122c.37448.01514.749.03607,1.1232.05923a15.00205,15.00205,0,0,0,2.72749-.05389,5.00251,5.00251,0,0,0,4.42821-3.51091.822.822,0,0,1,.07924-.13583,3.09958,3.09958,0,0,1,.0321-.31571A4.80067,4.80067,0,0,0,49.12182,24.28348Zm-8.32208-6.99429a4.494,4.494,0,0,1-1.28908.64117A18.75169,18.75169,0,0,1,35.912,18.743a50.76466,50.76466,0,0,1-7.11812.43859,46.31638,46.31638,0,0,1-6.5526-.51742A17.36954,17.36954,0,0,1,19.12,17.92147a5.49966,5.49966,0,0,1-1.06639-.49558,1.68544,1.68544,0,0,1-.48158-.42035.64172.64172,0,0,1,.002-.83846,1.87083,1.87083,0,0,1,.57441-.47506,6.72226,6.72226,0,0,1,1.43376-.58823,19.4252,19.4252,0,0,1,2.76957-.60866A49.48577,49.48577,0,0,1,32.56,14.09836a34.67176,34.67176,0,0,1,4.88818.59844,13.815,13.815,0,0,1,2.31894.64345,3.98245,3.98245,0,0,1,1.03726.5508C41.39371,16.35366,41.39508,16.83232,40.79974,17.28919ZM45.11884,28.087a3.28278,3.28278,0,0,1-.84512.12826c-.99873.00178-1.99613-.07792-2.98063-.02184a.31079.31079,0,0,1,.00269-.2832c.36376-.98846.69506-1.98765.96489-3.00557a1.90385,1.90385,0,0,1,.50826-.86427,4.55312,4.55312,0,0,1,.93753-.70887,1.75244,1.75244,0,0,1,1.14167-.18343,2.55622,2.55622,0,0,1,2.15531,1.9623A2.65589,2.65589,0,0,1,45.11884,28.087Z" transform="translate(-1.76026 -0.33256)"/><path class="b" d="M7.31612,21.33087a2.32206,2.32206,0,0,0-1.00687-1.37281,1.54058,1.54058,0,0,0-1.417-.2115,1.86459,1.86459,0,0,0-1.3536,1.84923,1.97429,1.97429,0,0,0,1.55739,1.87227,2.47838,2.47838,0,0,0,.55885.07346c.75371-.0017,1.50739-.01837,2.2611-.03075.0126,0,.02476-.01624.03719-.02477.05211-.10894-.01925-.19868-.04935-.29353C7.70621,22.5725,7.47612,21.96024,7.31612,21.33087Z" transform="translate(-1.76026 -0.33256)"/><path class="b" d="M23.03222,12.005l.02074-.00363-.0231-.00473Z" transform="translate(-1.76026 -0.33256)"/><path class="c" d="M23.02986,11.9966l-.5343-.10789a28.13122,28.13122,0,0,0-3.016-.39775,36.311,36.311,0,0,0-4.77789-.003,20.57184,20.57184,0,0,0-4.4064.70629c-.49243.14057-.97864.30333-1.46788.4559-.19312.09909-.38453.20165-.58023.29606a3.53242,3.53242,0,0,0-1.47834,1.06305,3.57033,3.57033,0,0,0-.3792,1.91139c.013.45353.14014.89425.18332,1.34437.03352.34887.16276.84555-.29738.74474-2.23459-.49006-4.745,1.351-4.49845,3.74841a3.94008,3.94008,0,0,0,3.45825,3.65311,13.97338,13.97338,0,0,0,2.60591.03032,4.87516,4.87516,0,0,1,.51015-.02734.8301.8301,0,0,1,.7268.40589c.22983.397.45415.79685.68105,1.19591a1.0158,1.0158,0,0,1,.1414.14272,11.61328,11.61328,0,0,0,1.52109,1.73643,4.899,4.899,0,0,0,2.25252,1.2745,11.32255,11.32255,0,0,0,2.59353.32262c.48578.01409.59411.026.43687-.47983-.15554-.50078-.42-.95878-.57722-1.45912-.20809-.66228-.43048-1.31768-.61039-1.98805a34.02119,34.02119,0,0,1-1.13265-8.13087A14.81076,14.81076,0,0,1,14.42,16.56986c-.42361-.04147-.84831-.07993-1.27262-.12434a20.512,20.512,0,0,1-3.09037-.51955,6.9781,6.9781,0,0,1-1.16687-.39482,3.271,3.271,0,0,1-.53837-.29778c-.51784-.37171-.51443-.77848.0175-1.14254a3.88026,3.88026,0,0,1,.68363-.35246,8.79992,8.79992,0,0,1,1.67662-.48495,28.62734,28.62734,0,0,1,4.33757-.51015,43.10463,43.10463,0,0,1,4.37095.0158,2.18452,2.18452,0,0,0,.90366-.13931,8.13546,8.13546,0,0,1,2.01285-.48858c.22685-.04357.46316-.08776.67763-.12622ZM7.95319,23.486c-.01243.00853-.02459.02477-.03719.02477-.75371.01238-1.50739.029-2.2611.03075a2.47838,2.47838,0,0,1-.55885-.07346,1.97429,1.97429,0,0,1-1.55739-1.87227,1.86459,1.86459,0,0,1,1.3536-1.84923,1.54058,1.54058,0,0,1,1.417.2115,2.32206,2.32206,0,0,1,1.00687,1.37281c.16.62937.39009,1.24163.58772,1.8616C7.93394,23.28732,8.0053,23.37706,7.95319,23.486Z" transform="translate(-1.76026 -0.33256)"/><path class="c" d="M112.24482,31.00581h1.47166l1.97513,2.69693,1.86494-2.69693h1.38035v6.39928h-1.463V33.32781l-1.7823,2.496h-.21068l-1.77364-2.4684v4.04973h-1.46247Z" transform="translate(-1.76026 -0.33256)"/><path class="c" d="M122.41888,31.00581h1.3074l2.6602,6.39928h-1.563L124.293,36.061h-2.53217l-.53051,1.34413h-1.47165Zm-.10967,3.684h1.43543l-.71312-1.80986Z" transform="translate(-1.76026 -0.33256)"/><path class="c" d="M131.61506,37.40509l-3.03512-3.83957v3.83957h-1.37117V31.00581H128.379l3.03513,3.85793V31.00581h1.37117v6.39928Z" transform="translate(-1.76026 -0.33256)"/><path class="c" d="M136.26723,31.00581h1.3074l2.6602,6.39928h-1.563l-.53051-1.34413h-2.53217l-.53051,1.34413H133.607Zm-.10967,3.684H137.593l-.71312-1.80986Z" transform="translate(-1.76026 -0.33256)"/><path class="c" d="M143.47043,33.75732h2.73366v2.85251a3.69088,3.69088,0,0,1-2.39495.90493,3.11193,3.11193,0,0,1-3.42842-3.30956,3.33571,3.33571,0,0,1,5.33877-2.64184l-.61264,1.17936A1.95568,1.95568,0,0,0,143.8,32.2673a1.75339,1.75339,0,0,0-1.86495,1.9379,1.79755,1.79755,0,0,0,1.892,1.9384,1.84322,1.84322,0,0,0,1.00592-.31984v-.69527h-1.36249Z" transform="translate(-1.76026 -0.33256)"/><path class="c" d="M147.48343,31.00581h3.79417V32.377h-2.33169v1.12427h2.05725v1.37167h-2.05725v1.161h2.423v1.37117h-3.88548Z" transform="translate(-1.76026 -0.33256)"/><path class="c" d="M152.73956,31.00581h.128c.3382,0,1.47165-.02754,1.89249-.02754,2.55971,0,3.59268,1.47165,3.59268,3.17234,0,1.7915-1.22528,3.27284-3.66613,3.27284-.3382,0-1.17937-.01836-1.7915-.01836h-.15558ZM154.202,32.377v3.65694a4.95009,4.95009,0,0,0,.53051.01837,1.83,1.83,0,0,0,2.06592-1.90168c0-1.17936-.8682-1.80118-2.05674-1.80118A3.727,3.727,0,0,0,154.202,32.377Z" transform="translate(-1.76026 -0.33256)"/><path class="c" d="M164.31233,30.89614a3.1911,3.1911,0,0,1,3.40088,3.30906,3.24747,3.24747,0,0,1-3.40088,3.30956,3.191,3.191,0,0,1-3.40087-3.30956A3.242,3.242,0,0,1,164.31233,30.89614Zm0,5.24746a1.77515,1.77515,0,0,0,1.84658-1.9384,1.84873,1.84873,0,1,0-3.69316,0A1.875,1.875,0,0,0,164.31233,36.1436Z" transform="translate(-1.76026 -0.33256)"/><path class="c" d="M168.90073,31.00581h3.70235V32.377H170.3632v1.3528h1.96595v1.37167H170.3632v2.30364h-1.46247Z" transform="translate(-1.76026 -0.33256)"/><path class="c" d="M173.79111,31.00581h3.70235V32.377h-2.23987v1.3528h1.96595v1.37167h-1.96595v2.30364h-1.46248Z" transform="translate(-1.76026 -0.33256)"/><path class="c" d="M178.77281,31.00581h1.463v6.39928h-1.463Z" transform="translate(-1.76026 -0.33256)"/><path class="c" d="M186.95439,36.77409a2.94964,2.94964,0,0,1-2.08429.74067,3.15989,3.15989,0,0,1-3.355-3.30956,3.117,3.117,0,0,1,3.34578-3.30906,2.8785,2.8785,0,0,1,1.95676.66722l-.64936,1.09724a2.28467,2.28467,0,0,0-1.3074-.3933,1.75963,1.75963,0,0,0-1.79149,1.9379,1.85244,1.85244,0,0,0,1.93789,1.9384,2.35039,2.35039,0,0,0,1.38953-.46624Z" transform="translate(-1.76026 -0.33256)"/><path class="c" d="M187.9593,31.00581h3.79417V32.377h-2.3317v1.12427H191.479v1.37167h-2.05726v1.161h2.423v1.37117H187.9593Z" transform="translate(-1.76026 -0.33256)"/><path class="c" d="M192.89559,32.74272a1.9013,1.9013,0,0,1,2.06593-1.84658,2.53468,2.53468,0,0,1,1.88331.704l-.78607,1.09672a1.22748,1.22748,0,0,0-.9692-.42951c-.40248,0-.64018.18262-.64018.47542,0,1.06051,2.66989.80444,2.66989,2.88873a1.99488,1.99488,0,0,1-2.19448,1.88331,2.41088,2.41088,0,0,1-2.16641-1.05133l.832-.99623a1.79322,1.79322,0,0,0,1.37116.6764c.38411,0,.60346-.19231.60346-.49379C195.565,34.6898,192.89559,34.80865,192.89559,32.74272Z" transform="translate(-1.76026 -0.33256)"/><path class="c" d="M61.21385,36.51546a2.94967,2.94967,0,0,1-2.0843.74068,3.1599,3.1599,0,0,1-3.355-3.30957,3.117,3.117,0,0,1,3.34578-3.30905,2.87856,2.87856,0,0,1,1.95677.66721L60.42777,32.402a2.28472,2.28472,0,0,0-1.3074-.39329,1.75963,1.75963,0,0,0-1.79149,1.93789,1.85243,1.85243,0,0,0,1.93789,1.9384,2.35042,2.35042,0,0,0,1.38953-.46623Z" transform="translate(-1.76026 -0.33256)"/><path class="c" d="M64.88865,30.63752a3.19109,3.19109,0,0,1,3.40087,3.30905,3.24747,3.24747,0,0,1-3.40087,3.30957,3.191,3.191,0,0,1-3.40088-3.30957A3.242,3.242,0,0,1,64.88865,30.63752Zm0,5.24745a1.77515,1.77515,0,0,0,1.84658-1.9384,1.84874,1.84874,0,1,0-3.69317,0A1.875,1.875,0,0,0,64.88865,35.885Z" transform="translate(-1.76026 -0.33256)"/><path class="c" d="M75.83093,37.14646H74.43222l-1.33444-4.114-1.31658,4.114H70.38249L68.49,30.74719h1.65479l1.07887,4.04055,1.19722-4.04055H73.893l1.234,4.04055,1.09724-4.04055h1.40789Z" transform="translate(-1.76026 -0.33256)"/><path class="c" d="M81.23294,30.63752a3.1911,3.1911,0,0,1,3.40088,3.30905,3.24747,3.24747,0,0,1-3.40088,3.30957,3.191,3.191,0,0,1-3.40087-3.30957A3.242,3.242,0,0,1,81.23294,30.63752Zm0,5.24745a1.77515,1.77515,0,0,0,1.84659-1.9384,1.84874,1.84874,0,1,0-3.69317,0A1.875,1.875,0,0,0,81.23294,35.885Z" transform="translate(-1.76026 -0.33256)"/><path class="c" d="M85.82135,37.14646V30.74719c.35656,0,1.993-.01837,2.1756-.01837,1.74609,0,2.36791.8682,2.36791,2.04757A1.93571,1.93571,0,0,1,89.286,34.62348l1.865,2.523H89.3778l-1.55429-2.23987h-.53969v2.23987Zm1.46247-5.02811v1.41708h.53051c.55754,0,.99623-.201.99623-.74068,0-.35656-.18261-.69476-.88656-.69476C87.70466,32.1,87.5858,32.10917,87.28382,32.11835Z" transform="translate(-1.76026 -0.33256)"/><path class="c" d="M91.97322,30.74719h1.46247v2.78824l2.094-2.78824H97.285l-2.40464,2.95249,2.59644,3.44678H95.621l-2.1853-3.04431v3.04431H91.97322Z" transform="translate(-1.76026 -0.33256)"/><circle class="c" cx="102.68858" cy="34.47638" r="1.06668"/><path class="c" d="M66.18121,22.10247a6.86846,6.86846,0,0,1-2.68978.56163,9.559,9.559,0,0,1-3.85232-.74425,8.25288,8.25288,0,0,1-2.88618-2.05011A9.08443,9.08443,0,0,1,54.95072,16.801a11.26531,11.26531,0,0,1-.6264-3.8003,11.65515,11.65515,0,0,1,.6264-3.87833A9.31924,9.31924,0,0,1,56.75293,6.0015a8.2387,8.2387,0,0,1,2.88618-2.08939,9.41654,9.41654,0,0,1,3.85232-.75751,9.05218,9.05218,0,0,1,2.78161.431,7.88726,7.88726,0,0,1,2.4286,1.26659,6.8502,6.8502,0,0,1,2.651,4.88375H67.43505a3.9246,3.9246,0,0,0-1.41044-2.35057,4.1013,4.1013,0,0,0-2.53318-.78352,4.78871,4.78871,0,0,0-2.35057.53561,4.437,4.437,0,0,0-1.567,1.43646,6.2761,6.2761,0,0,0-.87483,2.05011,10.18774,10.18774,0,0,0-.27444,2.37658,9.47483,9.47483,0,0,0,.27444,2.28528,6.158,6.158,0,0,0,.87483,1.99808,4.47713,4.47713,0,0,0,1.567,1.42319,4.78289,4.78289,0,0,0,2.35057.53562,4.4517,4.4517,0,0,0,3.14683-1.03143,4.4839,4.4839,0,0,0,1.29313-2.99076H63.80463V12.1651h7.83522V22.24632H69.02811l-.41777-2.1154A6.14293,6.14293,0,0,1,66.18121,22.10247Z" transform="translate(-1.76026 -0.33256)"/><path class="c" d="M74.64288,12.56961A6.17561,6.17561,0,0,1,78.2473,8.88716a7.71763,7.71763,0,0,1,2.87291-.50908,7.82264,7.82264,0,0,1,2.88613.50908,6.15064,6.15064,0,0,1,3.61721,3.68245,8.29637,8.29637,0,0,1,.49628,2.93821,8.1889,8.1889,0,0,1-.49628,2.92546A6.34783,6.34783,0,0,1,86.21311,20.666a6.14485,6.14485,0,0,1-2.20677,1.42371,8.00564,8.00564,0,0,1-2.88613.49634,7.8979,7.8979,0,0,1-2.87291-.49634,6.16434,6.16434,0,0,1-2.194-1.42371,6.33318,6.33318,0,0,1-1.41045-2.23273,8.189,8.189,0,0,1-.49586-2.92546A8.29643,8.29643,0,0,1,74.64288,12.56961Zm3.36926,4.51852a4.21138,4.21138,0,0,0,.53561,1.38443,2.84939,2.84939,0,0,0,1.00542.97941,3.06817,3.06817,0,0,0,1.567.36522,3.14323,3.14323,0,0,0,1.58026-.36522,2.82014,2.82014,0,0,0,1.01821-.97941,4.21117,4.21117,0,0,0,.53562-1.38443,7.89589,7.89589,0,0,0,.1566-1.58031,8.0993,8.0993,0,0,0-.1566-1.59306,4.06417,4.06417,0,0,0-.53562-1.38391,2.97007,2.97007,0,0,0-1.01821-.9794,3.0562,3.0562,0,0,0-1.58026-.379,2.85306,2.85306,0,0,0-2.57246,1.35842,4.06436,4.06436,0,0,0-.53561,1.38391,8.09855,8.09855,0,0,0-.15661,1.59306A7.89516,7.89516,0,0,0,78.01214,17.08813Z" transform="translate(-1.76026 -0.33256)"/><path class="c" d="M90.60052,12.56961a6.17556,6.17556,0,0,1,3.60441-3.68245,7.71764,7.71764,0,0,1,2.87292-.50908,7.82314,7.82314,0,0,1,2.88618.50908,6.15076,6.15076,0,0,1,3.61715,3.68245,8.29614,8.29614,0,0,1,.49634,2.93821,8.18867,8.18867,0,0,1-.49634,2.92546,6.34769,6.34769,0,0,1-1.41044,2.23273A6.14512,6.14512,0,0,1,99.964,22.08972a8.00615,8.00615,0,0,1-2.88618.49634,7.89791,7.89791,0,0,1-2.87292-.49634A6.16442,6.16442,0,0,1,92.011,20.666a6.333,6.333,0,0,1-1.41044-2.23273,8.189,8.189,0,0,1-.49582-2.92546A8.29643,8.29643,0,0,1,90.60052,12.56961Zm3.36925,4.51852a4.2116,4.2116,0,0,0,.53561,1.38443,2.84947,2.84947,0,0,0,1.00542.97941,3.06818,3.06818,0,0,0,1.567.36522,3.14358,3.14358,0,0,0,1.58031-.36522,2.82047,2.82047,0,0,0,1.01816-.97941,4.21161,4.21161,0,0,0,.53562-1.38443,7.89589,7.89589,0,0,0,.15659-1.58031,8.0993,8.0993,0,0,0-.15659-1.59306,4.06458,4.06458,0,0,0-.53562-1.38391,2.97044,2.97044,0,0,0-1.01816-.9794,3.05654,3.05654,0,0,0-1.58031-.379,2.85306,2.85306,0,0,0-2.57247,1.35842,4.06457,4.06457,0,0,0-.53561,1.38391,8.09854,8.09854,0,0,0-.1566,1.59306A7.89516,7.89516,0,0,0,93.96977,17.08813Z" transform="translate(-1.76026 -0.33256)"/><path class="c" d="M116.065,20.52268a3.82485,3.82485,0,0,1-1.71037,1.57979,5.68587,5.68587,0,0,1-2.38985.48359,5.77451,5.77451,0,0,1-2.66429-.58765,5.34434,5.34434,0,0,1-1.89351-1.59358,7.2193,7.2193,0,0,1-1.12273-2.31128,9.69823,9.69823,0,0,1-.379-2.71632,9.11458,9.11458,0,0,1,.379-2.62448A6.82363,6.82363,0,0,1,107.407,10.5195a5.45293,5.45293,0,0,1,4.47924-2.14142,5.3149,5.3149,0,0,1,2.28527.50908,3.9843,3.9843,0,0,1,1.7109,1.50175h.052V3.59838h3.709V22.24632h-3.52585V20.52268Zm-.1566-6.67321a3.92983,3.92983,0,0,0-.53561-1.3579,3.01612,3.01612,0,0,0-.9794-.95339,2.86959,2.86959,0,0,0-1.5145-.36575,3.012,3.012,0,0,0-1.541.36575,2.89239,2.89239,0,0,0-1.00542.96614,4.26933,4.26933,0,0,0-.54836,1.37116,7.41334,7.41334,0,0,0-.16986,1.60633,6.87335,6.87335,0,0,0,.18261,1.567,4.275,4.275,0,0,0,.58764,1.39718,3.24919,3.24919,0,0,0,1.01868.99267,2.75491,2.75491,0,0,0,1.47574.37849,2.94082,2.94082,0,0,0,1.52776-.36522,2.77982,2.77982,0,0,0,.97941-.97941,4.39142,4.39142,0,0,0,.52234-1.3977,8.22459,8.22459,0,0,0,.1566-1.61907A8.03616,8.03616,0,0,0,115.90839,13.84947Z" transform="translate(-1.76026 -0.33256)"/><path class="c" d="M136.51514,22.24632l-3.16063-12.693h-.052l-3.10808,12.693h-4.15277L121.10587,3.59838h4.10022l2.95148,12.693h.052l3.23866-12.693h3.839L138.474,16.44846h.052L141.5815,3.59838h4.02218l-5.01433,18.64794Z" transform="translate(-1.76026 -0.33256)"/><path class="c" d="M145.68172,12.56961a6.17563,6.17563,0,0,1,3.60441-3.68245,7.71768,7.71768,0,0,1,2.87292-.50908,7.8231,7.8231,0,0,1,2.88618.50908,6.15081,6.15081,0,0,1,3.61716,3.68245,8.29637,8.29637,0,0,1,.49633,2.93821,8.18889,8.18889,0,0,1-.49633,2.92546,6.34786,6.34786,0,0,1-1.41045,2.23273,6.145,6.145,0,0,1-2.20671,1.42371,8.00611,8.00611,0,0,1-2.88618.49634,7.898,7.898,0,0,1-2.87292-.49634,6.16438,6.16438,0,0,1-2.194-1.42371,6.333,6.333,0,0,1-1.41045-2.23273,8.189,8.189,0,0,1-.49581-2.92546A8.29644,8.29644,0,0,1,145.68172,12.56961Zm3.36926,4.51852a4.21138,4.21138,0,0,0,.53561,1.38443,2.84944,2.84944,0,0,0,1.00541.97941,3.06823,3.06823,0,0,0,1.567.36522,3.14358,3.14358,0,0,0,1.58031-.36522,2.82039,2.82039,0,0,0,1.01816-.97941,4.21139,4.21139,0,0,0,.53562-1.38443,7.89589,7.89589,0,0,0,.1566-1.58031,8.0993,8.0993,0,0,0-.1566-1.59306,4.06438,4.06438,0,0,0-.53562-1.38391,2.97035,2.97035,0,0,0-1.01816-.9794,3.05654,3.05654,0,0,0-1.58031-.379,2.853,2.853,0,0,0-2.57246,1.35842,4.06436,4.06436,0,0,0-.53561,1.38391,8.09855,8.09855,0,0,0-.15661,1.59306A7.89516,7.89516,0,0,0,149.051,17.08813Z" transform="translate(-1.76026 -0.33256)"/><path class="c" d="M165.08664,8.74383V11.251h.052a4.55233,4.55233,0,0,1,.70548-1.16254,4.63726,4.63726,0,0,1,1.01816-.91411,5.00868,5.00868,0,0,1,1.22784-.58764,4.44456,4.44456,0,0,1,1.35789-.20863,2.88387,2.88387,0,0,1,.80954.13059V11.956q-.26091-.052-.6264-.09131a6.67254,6.67254,0,0,0-.70549-.03928,3.95714,3.95714,0,0,0-1.72364.33973,2.98334,2.98334,0,0,0-1.136.92686,3.71131,3.71131,0,0,0-.61366,1.37116,7.43426,7.43426,0,0,0-.18313,1.69764v6.08556h-3.70847V8.74383Z" transform="translate(-1.76026 -0.33256)"/><path class="c" d="M175.76877,3.59838V13.60156l4.67512-4.85773h4.38742l-5.0929,4.96231,5.66779,8.54018h-4.4925l-3.70847-6.033-1.43646,1.38391v4.64911h-3.709V3.59838Z" transform="translate(-1.76026 -0.33256)"/><path class="c" d="M189.83237,18.89034a2.16536,2.16536,0,0,0,.64019.705,2.73794,2.73794,0,0,0,.90084.405,4.23634,4.23634,0,0,0,1.058.13059,3.943,3.943,0,0,0,.82229-.09131,2.79837,2.79837,0,0,0,.78352-.28771,1.77176,1.77176,0,0,0,.58765-.52235,1.36818,1.36818,0,0,0,.23515-.82228q0-.83554-1.11-1.25384a22.17665,22.17665,0,0,0-3.09481-.83555q-.80954-.18288-1.58031-.431a5.395,5.395,0,0,1-1.37116-.65294,3.176,3.176,0,0,1-.96614-1.01868,2.8849,2.8849,0,0,1-.36575-1.50175,4.06032,4.06032,0,0,1,.5096-2.14142A3.75549,3.75549,0,0,1,188.226,9.25291a5.90039,5.90039,0,0,1,1.88076-.679,11.59542,11.59542,0,0,1,2.14142-.19588,10.74111,10.74111,0,0,1,2.12867.20863,5.6541,5.6541,0,0,1,1.84149.70548,4.23549,4.23549,0,0,1,1.34463,1.31862,4.43311,4.43311,0,0,1,.64019,2.07664h-3.52585a1.62446,1.62446,0,0,0-.80954-1.44972,3.70932,3.70932,0,0,0-1.72416-.3785,6.29921,6.29921,0,0,0-.679.03928,2.26944,2.26944,0,0,0-.66568.16935,1.38011,1.38011,0,0,0-.50961.379,1.00135,1.00135,0,0,0-.20862.66568,1.01719,1.01719,0,0,0,.36523.81005,2.825,2.825,0,0,0,.95338.50908,11.9394,11.9394,0,0,0,1.34515.35249q.75751.15686,1.541.33973a15.76463,15.76463,0,0,1,1.57979.44379,5.211,5.211,0,0,1,1.37117.69221,3.35554,3.35554,0,0,1,.96665,1.07071,3.149,3.149,0,0,1,.36575,1.58032,4.10288,4.10288,0,0,1-1.9328,3.68245,5.7158,5.7158,0,0,1-1.97207.77025,11.49847,11.49847,0,0,1-2.25925.22242,11.19052,11.19052,0,0,1-2.298-.23516,6.05918,6.05918,0,0,1-1.99809-.78353,4.47907,4.47907,0,0,1-1.43645-1.44972,4.53605,4.53605,0,0,1-.61366-2.25926h3.52585A2.02973,2.02973,0,0,0,189.83237,18.89034Z" transform="translate(-1.76026 -0.33256)"/></svg>